HIERARCHY
ROOT pelvis
{
  OFFSET 0 100 0
  CHANNELS 6 Xposition Yposition Zposition Zrotation Xrotation Yrotation
  JOINT pelvis_right_femur
  {
    OFFSET -10.78128 -3.44521 -0.5502486
    CHANNELS 3 Zrotation Xrotation Yrotation
    JOINT right_femur_tibia
    {
      OFFSET -0.8047443 -44.0398 -0.1307829
      CHANNELS 3 Zrotation Xrotation Yrotation
      JOINT right_tibia_foot
      {
        OFFSET 3.006224 -47.83518 -5
        CHANNELS 3 Zrotation Xrotation Yrotation
        End Site
        {
          OFFSET 0 -5 15
        }
      }
    }
  }
  JOINT pelvis_left_femur
  {
    OFFSET 10.78128 -3.44521 -0.5502486
    CHANNELS 3 Zrotation Xrotation Yrotation
    JOINT left_femur_tibia
    {
      OFFSET 0.8047443 -44.0398 -0.1307829
      CHANNELS 3 Zrotation Xrotation Yrotation
      JOINT left_tibia_foot
      {
        OFFSET -4.370144 -48.10324 -4.275266
        CHANNELS 3 Zrotation Xrotation Yrotation
        End Site
        {
          OFFSET 0 -5 15
        }
      }
    }
  }
  JOINT pelvis_spine1
  {
    OFFSET 0 6.468898 -3.129235
    CHANNELS 3 Zrotation Xrotation Yrotation
    JOINT spine1
    {
      OFFSET 0 23.15396 4.99043
      CHANNELS 3 Zrotation Xrotation Yrotation
      JOINT spine2
      {
        OFFSET 0 20.79997 -5.064912
        CHANNELS 3 Zrotation Xrotation Yrotation
        JOINT neck
        {
          OFFSET 0 14.38658 9.616178
          CHANNELS 3 Zrotation Xrotation Yrotation
          End Site
          {
            OFFSET 0 20 0
          }
        }
      }
      JOINT right_manubrium
      {
        OFFSET -5.722621 16.35077 3.967754
        CHANNELS 3 Zrotation Xrotation Yrotation
        JOINT right_clavicle
        {
          OFFSET -13.16364 1.694482 -4.693211
          CHANNELS 3 Zrotation Xrotation Yrotation
          JOINT right_humerus
          {
            OFFSET -28.5034 -0.3100689 -2.792744
            CHANNELS 3 Zrotation Xrotation Yrotation
            JOINT right_radius
            {
              OFFSET -25.15693 0.02248979 -1.271978
              CHANNELS 3 Zrotation Xrotation Yrotation
              End Site
              {
                OFFSET -15 0 0
              }
            }
          }
        }
      }
      JOINT left_manubrium
      {
        OFFSET 5.722621 16.35077 3.967754
        CHANNELS 3 Zrotation Xrotation Yrotation
        JOINT left_clavicle
        {
          OFFSET 13.16364 1.694482 -4.693211
          CHANNELS 3 Zrotation Xrotation Yrotation
          JOINT left_humerus
          {
            OFFSET 29.39168 -1.063119 -2.237045
            CHANNELS 3 Zrotation Xrotation Yrotation
            JOINT left_radius
            {
              OFFSET 24.59957 -0.9528479 0.9047498
              CHANNELS 3 Zrotation Xrotation Yrotation
              End Site
              {
                OFFSET 15 -0 -0
              }
            }
          }
        }
      }
    }
  }
}
MOTION
Frames: 19
Frame Time: 0.0416666666667
0 103.5113 0 1.718322 -3.090301 0.2662361 1.097599 -9.40215 7.278404 -0 40.78377 -0 -6.550603 -16.72301 -4.269849 -6.974108 12.04654 -24.77773 -0 5.434037 -0 -0.2135736 -19.30505 23.45187 -0.1809603 -2.060703 4.39156 0.3035706 8.015529 -7.803839 1.737011 21.69833 8.105591 5.395849 -22.01362 8.79547 6.331011 -18.39481 10.13967 89.5914 35.28998 -26.13925 -0 0 16.08499 -7.19034 9.982591 1.506094 7.714329 -22.15683 -2.689472 -99.82318 41.53274 26.94267 0 0 -26.82421 -8.969673 17.46156 28.36546
0.1328852 103.7556 1.12221 1.398835 -2.046544 0.446793 1.493013 -11.92558 7.860737 -0 41.82342 -0 -6.56716 -17.06404 -4.746575 -6.871791 12.44752 -25.18328 -0 5.787674 -0 -1.658753 -20.6579 22.92622 0.02738756 -2.017667 4.595212 0.06424508 8.077483 -7.681797 1.760249 21.68268 8.169681 5.48471 -21.86937 8.821526 6.180013 -18.4265 10.07862 89.85148 35.6669 -26.20944 -0 0 16.01245 -7.559136 10.2877 1.504205 7.873327 -22.37507 -2.641718 -99.66305 41.49716 26.85573 0 0 -27.36478 -8.693893 17.51298 28.18669
0.2496659 103.8187 2.509404 0.4938288 -1.711766 0.5843457 2.821775 -17.31294 6.923153 -0 39.63434 -0 -7.206228 -14.13314 -4.005293 -5.979085 12.66084 -24.29652 -0 6.208319 -0 -1.629669 -21.63844 22.07112 -0.396115 -1.868354 4.436519 0.4949474 7.991122 -7.608642 1.564279 21.97233 8.102601 5.18169 -22.35739 8.851907 6.3119 -18.19706 10.25356 89.22365 36.19322 -25.22768 -0 0 15.39951 -7.572642 10.0845 2.176864 7.285098 -21.79642 -2.7418 -98.89599 40.35426 26.26318 0 0 -26.08983 -7.227537 17.38067 26.18571
0.3664433 103.7515 4.149964 -0.1265273 -1.091841 0.7047105 3.741507 -21.59525 6.407249 -0 37.12334 -0 -7.349333 -12.19257 -3.637308 -5.449177 12.82794 -23.45599 -0 6.422327 -0 -1.911751 -22.69929 21.16949 -0.5939517 -1.772258 4.333355 0.7187531 7.935809 -7.582442 1.469868 22.09638 8.071374 5.036664 -22.60384 8.854714 6.351412 -18.07621 10.34769 88.92028 36.391 -24.74481 -0 0 15.0904 -7.629898 9.995054 2.54051 6.976419 -21.49825 -2.793134 -98.49647 39.80469 25.95039 0 0 -25.48855 -6.61869 17.2499 25.30064
0.5046421 103.4835 6.181306 -0.6440499 -0.2067118 0.8059452 4.658113 -26.21335 5.841789 -0 32.83875 -0 -7.115347 -10.11929 -3.215605 -5.077904 13.05366 -22.25068 -0 6.46118 -0 -1.543533 -23.71689 20.30755 -0.8430922 -1.671617 4.153934 1.021291 7.853589 -7.598461 1.368155 22.21005 8.028814 4.872139 -22.90026 8.844211 6.419419 -17.93274 10.46546 88.55076 36.45044 -24.24828 -0 0 14.78076 -7.618586 9.832897 2.929808 6.614368 -21.13441 -2.855714 -98.10714 39.25801 25.62151 0 0 -24.75801 -6.141257 17.06712 24.50286
0.6678961 102.9941 8.688152 -0.993925 0.7947769 0.9124726 5.373012 -30.20428 5.242315 -0 27.71215 -0 -6.692826 -8.054296 -2.858896 -4.88237 13.4049 -20.95696 -0 6.539698 -0 -1.275245 -24.67844 19.32937 -1.060214 -1.573893 3.960799 1.305301 7.762867 -7.633912 1.282808 22.29029 7.992652 4.733654 -23.16442 8.823695 6.470191 -17.79817 10.57352 88.23109 36.4142 -23.84337 -0 0 14.51815 -7.620508 9.68429 3.278261 6.28931 -20.80563 -2.91105 -97.77676 38.83236 25.32743 0 0 -24.1316 -5.882614 16.87586 23.95883
0.8495453 102.3012 11.76654 -1.217939 1.866631 1.058336 5.925946 -33.39247 4.555467 -0 22.16556 -0 -6.261454 -5.867175 -2.534809 -4.823511 13.95206 -19.58899 -0 6.959833 -0 -1.259392 -25.4067 18.15149 -1.265387 -1.461241 3.753671 1.590603 7.661409 -7.674861 1.199238 22.35905 7.959328 4.600948 -23.42392 8.793223 6.50068 -17.65582 10.6837 87.92672 36.34366 -23.45009 -0 0 14.24548 -7.672766 9.554208 3.64902 5.959545 -20.47742 -2.966581 -97.42643 38.42743 25.01118 0 0 -23.54305 -5.71504 16.65882 23.50182
1.032031 101.4841 15.47598 -1.39032 2.874917 1.28245 6.37017 -35.38704 3.827769 -0 17.20257 -0 -6.041486 -3.670217 -2.254546 -4.825437 14.67178 -18.2342 -0 8.138854 -0 -1.817997 -25.62396 16.6729 -1.440809 -1.32769 3.557997 1.851912 7.559458 -7.704321 1.118469 22.42374 7.929106 4.47616 -23.66095 8.752135 6.492702 -17.5106 10.79153 87.65952 36.2874 -23.05834 -0 0 13.94858 -7.825078 9.472472 4.052862 5.630736 -20.16588 -3.023433 -97.03434 38.02852 24.66618 0 0 -23.03377 -5.595719 16.4194 23.09748
1.194378 100.6843 19.83828 -1.612562 3.661212 1.611501 6.831663 -35.97504 3.152901 -0 13.72153 -0 -6.191632 -1.698144 -1.997726 -4.785567 15.43926 -16.92475 -0 10.60087 -0 -3.020705 -24.9469 14.8797 -1.57561 -1.167286 3.397203 2.069942 7.468572 -7.705943 1.040077 22.49522 7.898985 4.356638 -23.86133 8.698092 6.430493 -17.36661 10.89582 87.44008 36.29078 -22.64441 -0 0 13.60983 -8.128362 9.463604 4.508738 5.30047 -19.87994 -3.084318 -96.5752 37.60814 24.2834 0 0 -22.62293 -5.472402 16.15693 22.69601
1.32401 100.0841 24.82167 -1.960945 4.052758 2.031295 7.412001 -35.0875 2.657916 -0 12.30404 -0 -6.73803 -0.3209226 -1.764483 -4.601516 15.96484 -15.68707 -0 14.86353 -0 -4.734161 -23.05685 12.88618 -1.657029 -0.982386 3.300467 2.217722 7.403161 -7.664496 0.9675615 22.58086 7.865242 4.243593 -24.00096 8.628681 6.300846 -17.2365 10.992 87.27783 36.38818 -22.19249 -0 0 13.2341 -8.630034 9.552824 5.021567 4.979074 -19.63797 -3.146813 -96.04894 37.1579 23.8758 0 0 -22.33353 -5.312553 15.88174 22.27842
1.429118 99.86498 30.33473 -2.420207 3.920172 2.46225 8.082554 -32.78684 2.416411 -0 12.84248 -0 -7.544764 0.09781532 -1.591275 -4.228541 15.79581 -14.52615 -0 21.27848 -0 -6.617866 -19.87211 10.93811 -1.679078 -0.7814638 3.296336 2.270688 7.374856 -7.567141 0.9050625 22.6832 7.824697 4.139594 -24.05634 8.541537 6.096628 -17.13779 11.07537 87.16183 36.60058 -21.67479 -0 0 12.84771 -9.376275 9.763847 5.59641 4.682877 -19.45721 -3.200169 -95.4699 36.66835 23.46906 0 0 -22.16756 -5.091583 15.60934 21.83376
1.540223 100.1512 36.22452 -2.851656 3.245739 2.769094 8.638252 -29.21639 2.395154 -0 14.48179 -0 -8.361093 -0.6322902 -1.538989 -3.724692 14.40565 -13.42375 -0 29.76214 -0 -8.272369 -15.70443 9.325095 -1.646008 -0.5785185 3.407401 2.212456 7.38774 -7.405794 0.8559862 22.79555 7.777261 4.049653 -24.01051 8.43504 5.820063 -17.09094 11.14187 87.05118 36.92909 -21.04663 -0 0 12.50229 -10.40755 10.11639 6.24246 4.434045 -19.34947 -3.222521 -94.86478 36.12306 23.09859 0 0 -22.09834 -4.795208 15.35698 21.35681
1.692648 100.9614 42.29345 -3.041322 2.144319 2.820603 8.796397 -24.58132 2.462958 -0 15.96559 -0 -8.955144 -2.367717 -1.619398 -3.233028 11.39331 -12.32256 -0 39.60219 -0 -9.362329 -11.22244 8.278731 -1.574202 -0.3893279 3.644359 2.041284 7.435827 -7.178848 0.8210458 22.90106 7.726797 3.980037 -23.85909 8.307958 5.483648 -17.11473 11.19026 86.87287 37.35162 -20.2443 -0 0 12.26696 -11.75509 10.62142 6.979651 4.254525 -19.31496 -3.183736 -94.26319 35.49092 22.80038 0 0 -22.06743 -4.418676 15.13531 20.84118
1.899891 102.1924 48.33931 -2.810959 0.8119181 2.564782 8.384552 -19.17014 2.470225 -0 16.24801 -0 -9.224803 -4.607371 -1.751807 -2.886962 6.701361 -11.13806 -0 49.44972 -0 -9.682781 -7.240392 7.933835 -1.489619 -0.2283604 4.003367 1.771437 7.505477 -6.891908 0.7981369 22.97617 7.679447 3.936283 -23.61066 8.15909 5.108927 -17.2232 11.22291 86.53492 37.822 -19.19675 -0 0 12.21617 -13.43224 11.27414 7.835726 4.159783 -19.34 -3.053582 -93.69404 34.73216 22.60685 0 0 -21.99303 -3.970546 14.94352 20.28336
2.141658 103.643 54.2013 -2.119733 -0.5583921 2.061638 7.465225 -13.35146 2.336963 -0 14.98656 -0 -9.202878 -6.705066 -1.814458 -2.703471 0.7029381 -9.806991 -0 57.53729 -0 -9.199409 -4.440675 8.349258 -1.421665 -0.1066466 4.467944 1.428958 7.58157 -6.556425 0.7837918 22.99759 7.640605 3.921081 -23.28265 7.987702 4.722991 -17.42463 11.24534 85.95084 38.27497 -17.8458 -0 0 12.41585 -15.42547 12.04909 8.835489 4.153852 -19.39868 -2.811864 -93.18575 33.81352 22.54664 0 0 -21.78617 -3.474671 14.76911 19.69014
2.379157 105.0553 59.78994 -1.103576 -1.824831 1.455446 6.308639 -7.523928 2.078223 -0 12.6139 -0 -8.980967 -8.231822 -1.730406 -2.540191 -5.908283 -8.333515 -0 62.03921 -0 -8.103119 -3.155072 9.504631 -1.395745 -0.03070683 5.013199 1.044689 7.653621 -6.187218 0.7751515 22.94891 7.612958 3.933531 -22.89623 7.795275 4.354411 -17.72136 11.26456 85.06725 38.63622 -16.16966 -0 0 12.91139 -17.68588 12.90025 9.985866 4.227877 -19.458 -2.456166 -92.76741 32.72449 22.64467 0 0 -21.37039 -2.967757 14.59202 19.08327
2.587348 106.1591 65.09965 -0.04816202 -2.894929 0.9074613 5.270558 -2.041916 1.755564 -0 9.999372 -0 -8.627098 -9.220314 -1.495621 -2.129357 -12.36384 -6.772688 -0 61.57251 -0 -6.801951 -3.247471 11.23183 -1.4276 -0.001441218 5.608689 0.6491584 7.718962 -5.800634 0.7710116 22.82512 7.595957 3.969031 -22.47377 7.587186 4.029496 -18.10825 11.28778 83.88627 38.83525 -14.20239 -0 0 13.71571 -20.12396 13.76609 11.26423 4.360324 -19.48375 -2.005924 -92.46516 31.48659 22.91679 0 0 -20.69907 -2.493222 14.38922 18.49745
2.779864 106.7275 70.20868 0.7025347 -3.685602 0.5178269 4.652753 2.845483 1.41184 -0 7.9347 -0 -8.146591 -10.11312 -1.159347 -1.192602 -18.06503 -5.169724 -0 55.79606 -0 -5.761851 -4.15752 13.18396 -1.521426 -0.01304962 6.218567 0.2711505 7.782896 -5.414464 0.7717143 22.6353 7.585603 4.018701 -22.03814 7.372771 3.769103 -18.56915 11.32202 82.47651 38.81872 -12.04362 -0 0 14.79674 -22.61188 14.57917 12.61479 4.51726 -19.44582 -1.502818 -92.29409 30.15396 23.35872 0 0 -19.76555 -2.095607 14.1392 17.97454
3.003995 106.6504 75.25917 0.898284 -4.084404 0.2735207 4.564855 7.015484 1.053223 -0 6.760538 -0 -7.52879 -11.46383 -0.8051273 0.3482142 -22.67766 -3.568319 -0 45.81761 -0 -5.252135 -5.159123 14.97828 -1.672014 -0.05345465 6.801542 -0.06208867 7.857501 -5.048828 0.7785548 22.40313 7.574384 4.068902 -21.61128 7.163675 3.586557 -19.07394 11.37446 80.96641 38.56329 -9.851521 -0 0 16.06967 -24.99935 15.28049 13.95538 4.654472 -19.32398 -1.006178 -92.25014 28.8055 23.93517 0 0 -18.60358 -1.815939 13.82726 17.55639
